<svg width="36" height="36" fill="none" xmlns="http://www.w3.org/2000/svg"><path d="M34 18c0 8.837-7.163 16-16 16S2 26.837 2 18 9.163 2 18 2s16 7.163 16 16z" fill="#fff"/><path fill-rule="evenodd" clip-rule="evenodd" d="M36 18c0 9.941-8.059 18-18 18S0 27.941 0 18 8.059 0 18 0s18 8.059 18 18zM18 34c8.837 0 16-7.163 16-16S26.837 2 18 2 2 9.163 2 18s7.163 16 16 16z" fill="#333"/><path d="M13.4 15.4v-1.6a4.8 4.8 0 0 1 9.6 0h-2.4v1.6h3.2a1.6 1.6 0 0 1 1.6 1.6v6.4a1.6 1.6 0 0 1-1.6 1.6H12.6a1.6 1.6 0 0 1-1.6-1.6V17c0-.88.72-1.6 1.6-1.6h.8zm4 5.384V22.6H19v-1.816a1.6 1.6 0 1 0-1.6 0zM15.8 13.8v1.6h4.8v-1.6a2.4 2.4 0 0 0-4.8 0z"/></svg>