<svg width="36" height="36" fill="none" xmlns="http://www.w3.org/2000/svg"><circle cx="18" cy="18" r="17" fill="#fff" stroke="#44A8B3" stroke-width="2"/><path fill-rule="evenodd" clip-rule="evenodd" d="M11.656 15.856c.788-3.15 2.756-4.725 5.906-4.725 4.726 0 5.316 3.544 7.679 4.135 1.575.393 2.953-.197 4.134-1.772-.788 3.15-2.756 4.725-5.906 4.725-4.725 0-5.316-3.544-7.678-4.135-1.575-.393-2.954.197-4.135 1.772zM5.75 22.944c.787-3.15 2.756-4.725 5.906-4.725 4.725 0 5.316 3.544 7.678 4.134 1.575.394 2.954-.197 4.135-1.772-.788 3.15-2.757 4.725-5.907 4.725-4.725 0-5.315-3.543-7.678-4.134-1.575-.394-2.953.197-4.134 1.772z" fill="#44A8B3"/></svg>