<svg width="17" height="14" viewBox="0 0 17 14" fill="none" xmlns="http://www.w3.org/2000/svg"><path d="M16.004 1.537a6.461 6.461 0 0 1-1.884.516A3.3 3.3 0 0 0 15.564.237a6.608 6.608 0 0 1-2.084.797A3.28 3.28 0 0 0 11.083 0a3.28 3.28 0 0 0-3.197 4.028A9.321 9.321 0 0 1 1.12.597a3.284 3.284 0 0 0 1.015 4.381 3.301 3.301 0 0 1-1.488-.409v.041a3.283 3.283 0 0 0 2.634 3.219 3.291 3.291 0 0 1-1.485.057 3.293 3.293 0 0 0 3.066 2.281A6.585 6.585 0 0 1 0 11.526a9.285 9.285 0 0 0 5.034 1.475c6.037 0 9.341-5.003 9.341-9.341 0-.144-.003-.284-.009-.425a6.59 6.59 0 0 0 1.637-1.697l.001-.001z"/></svg>